<svg viewBox="0 0 819 1143" fill="none" xmlns="http://www.w3.org/2000/svg">
<g id="fignu3 1">
<g id="fignu3">
<g id="fignu3-shadow" filter="url(#filter0_f_1703_54)">
<path id="Vector" class="fignu3-shadow" d="M397.5 1064C572.85 1064 715 1050.57 715 1034C715 1017.43 572.85 1004 397.5 1004C222.15 1004 80 1017.43 80 1034C80 1050.57 222.15 1064 397.5 1064Z" fill="#464646" fill-opacity="0.4"/>
</g>
<g id="fignu3-card-verse" class="fignu3-card-verse">
<g id="Rectangle 967" filter="url(#filter1_i_1703_54)">
<path id="Vector_2" d="M556.721 354.362L142.079 77.3071C133.56 71.6146 124.218 74.9411 121.214 84.7369L32.4392 374.203C29.4349 383.999 33.9059 396.555 42.4252 402.247L457.067 679.302C465.587 684.994 474.928 681.668 477.932 671.872L566.707 382.406C569.712 372.61 565.241 360.054 556.721 354.362Z" fill="url(#paint0_linear_1703_54)"/>
</g>
<path id="Rectangle 405" d="M564.967 388.081L119.474 90.4126L96.1172 166.57L541.61 464.239L564.967 388.081Z" fill="#D6D6D6"/>
<path id="Rectangle 406" d="M157.419 280.755L124.302 258.627C106.621 246.813 87.2343 253.716 80.9996 274.046C74.7649 294.375 84.0434 320.432 101.724 332.246L134.841 354.374C152.521 366.187 171.908 359.284 178.143 338.955C184.377 318.625 175.099 292.568 157.419 280.755Z" fill="url(#paint1_linear_1703_54)"/>
<text id="5032 9334 3764 9846" transform="matrix(0.83147 0.55557 -0.293206 0.956049 64.1826 328.879)" fill="#FEFBFF" xml:space="preserve" style="white-space: pre" font-family="Sora" font-size="26.7153" letter-spacing="0em"><tspan x="0" y="26.0832">5032 9334 3764 9846</tspan></text>
<text id="gold" transform="matrix(0.83147 0.55557 -0.293206 0.956049 131.51 206.313)" fill="#F7F2FA" xml:space="preserve" style="white-space: pre" font-family="Sora" font-size="26.7153" font-weight="bold" letter-spacing="0em"><tspan x="0" y="26.0832">gold</tspan></text>
<text id="12/16" transform="matrix(0.83147 0.55557 -0.293206 0.956049 77.3145 387.878)" fill="#FEFBFF" xml:space="preserve" style="white-space: pre" font-family="Sora" font-size="13.3577" letter-spacing="0em"><tspan x="0" y="13.0416">12/16</tspan></text>
<text id="20/27" transform="matrix(0.83147 0.55557 -0.293206 0.956049 140.251 429.931)" fill="#FEFBFF" xml:space="preserve" style="white-space: pre" font-family="Sora" font-size="13.3577" letter-spacing="0em"><tspan x="0" y="13.0416">20/27</tspan></text>
<text id="123" transform="matrix(0.83147 0.55557 -0.293206 0.956049 211.209 477.344)" fill="#FEFBFF" xml:space="preserve" style="white-space: pre" font-family="Sora" font-size="13.3577" letter-spacing="0em"><tspan x="0" y="13.0416">123</tspan></text>
<g id="Group 300">
<text id="cirrus." transform="matrix(0.83147 0.55557 -0.293206 0.956049 419.889 623.56)" fill="#FBF9FC" xml:space="preserve" style="white-space: pre" font-family="Sora" font-size="9.64719" font-weight="bold" letter-spacing="0em"><tspan x="0" y="9.28004">cirrus.</tspan></text>
<path id="Ellipse 7" d="M421.527 623.07C432.091 630.128 443.674 626.004 447.4 613.857C451.125 601.71 445.581 586.141 435.017 579.082C424.453 572.024 412.869 576.148 409.144 588.295C405.419 600.442 410.963 616.011 421.527 623.07Z" fill="#0167B2"/>
<path id="Ellipse 8" d="M444.974 638.737C455.538 645.795 467.122 641.671 470.847 629.524C474.572 617.377 469.028 601.808 458.464 594.749C447.9 587.691 436.317 591.815 432.591 603.962C428.866 616.109 434.41 631.678 444.974 638.737Z" fill="#02A1E2"/>
<path id="Intersect" fill-rule="evenodd" clip-rule="evenodd" d="M434.607 626.168C440.378 625.184 445.238 620.829 447.414 613.734C449.59 606.639 448.6 598.375 445.293 591.325C439.522 592.309 434.662 596.665 432.486 603.76C430.31 610.855 431.3 619.119 434.607 626.168Z" fill="#207CBD"/>
</g>
<text id="MEMBER SINCE" transform="matrix(0.83147 0.55557 -0.293206 0.956049 52.1431 372.987)" fill="#FEFBFF" xml:space="preserve" style="white-space: pre" font-family="Source Sans Pro" font-size="4.45255" letter-spacing="0em"><tspan x="0" y="4.58288">MEMBER&#10;</tspan><tspan x="0" y="10.5829">SINCE</tspan></text>
<text id="VALID THRU" transform="matrix(0.83147 0.55557 -0.293206 0.956049 121.25 419.162)" fill="#FEFBFF" xml:space="preserve" style="white-space: pre" font-family="Source Sans Pro" font-size="4.45255" letter-spacing="0em"><tspan x="0" y="4.58288">VALID&#10;</tspan><tspan x="0" y="10.5829">THRU</tspan></text>
<text id="SECURITY CODE" transform="matrix(0.83147 0.55557 -0.293206 0.956049 184.187 461.215)" fill="#FEFBFF" xml:space="preserve" style="white-space: pre" font-family="Source Sans Pro" font-size="4.45255" letter-spacing="0em"><tspan x="0" y="4.58288">SECURITY&#10;</tspan><tspan x="0" y="10.5829">CODE</tspan></text>
<path id="Vector_3" d="M284.431 333.137C284.315 333.513 284.075 333.787 283.762 333.899C283.449 334.01 283.089 333.95 282.762 333.731L275.357 328.784L272.019 329.973L275.5 318.621C275.616 318.245 275.856 317.971 276.169 317.859C276.482 317.748 276.842 317.808 277.169 318.027L285.808 323.799C286.135 324.018 286.403 324.377 286.553 324.797C286.703 325.218 286.722 325.666 286.607 326.042L284.431 333.137Z" stroke="#FEFBFF" stroke-width="0.742092" stroke-linecap="round" stroke-linejoin="round"/>
<g id="Group 51">
<path id="Vector_2_2" d="M268.434 363.481C271.841 365.758 275.578 364.428 276.78 360.509C277.981 356.591 276.193 351.569 272.785 349.292C269.378 347.015 265.641 348.345 264.439 352.264C263.237 356.182 265.026 361.204 268.434 363.481Z" stroke="#FEFBFF" stroke-width="0.742092" stroke-linecap="round" stroke-linejoin="round"/>
<path id="Vector_3_2" d="M269.466 353.058C269.757 352.681 270.166 352.473 270.621 352.47C271.076 352.467 271.548 352.67 271.952 353.043C272.357 353.416 272.669 353.934 272.833 354.507C272.996 355.08 273.001 355.669 272.846 356.172C272.411 357.591 270.342 357.063 270.342 357.063" stroke="#FEFBFF" stroke-width="0.742092" stroke-linecap="round" stroke-linejoin="round"/>
<path id="Vector_4" d="M269.521 359.934L269.527 359.938" stroke="#FEFBFF" stroke-width="0.742092" stroke-linecap="round" stroke-linejoin="round"/>
</g>
<text id="Est&#195;&#161; com d&#195;&#186;vidas? Nosso app pode te ajudar." transform="matrix(0.83147 0.55557 -0.293206 0.956049 296.165 326.391)" fill="#FEFBFF" xml:space="preserve" style="white-space: pre" font-family="Source Sans Pro" font-size="6.67883" letter-spacing="0em"><tspan x="0" y="6.37432">Est&#xe1; com d&#xfa;vidas?&#10;</tspan><tspan x="0" y="14.3743">Nosso app pode te ajudar.</tspan></text>
<text id="Fale com a gente: 0800 591 2117" transform="matrix(0.83147 0.55557 -0.293206 0.956049 287.026 356.189)" fill="#FEFBFF" xml:space="preserve" style="white-space: pre" font-family="Source Sans Pro" font-size="6.67883" letter-spacing="0em"><tspan x="0" y="6.37432">Fale com a gente:&#10;</tspan><tspan x="0" y="14.3743">0800 591 2117</tspan></text>
<path id="Ellipse 167" d="M136.64 338.68C147.374 345.852 159.145 341.661 162.93 329.318C166.715 316.975 161.082 301.155 150.347 293.983C139.613 286.81 127.843 291.001 124.057 303.344C120.272 315.687 125.905 331.507 136.64 338.68Z" fill="#D9D9D9"/>
<path id="Subtract" fill-rule="evenodd" clip-rule="evenodd" d="M124.302 258.627C106.621 246.813 87.2342 253.717 80.9995 274.046C74.7648 294.375 84.0433 320.433 101.724 332.246L111.169 338.557C139.737 323.601 146.279 308.555 133.629 264.86L157.492 280.804C157.468 280.788 157.443 280.771 157.419 280.755L124.302 258.627Z" fill="url(#paint2_linear_1703_54)"/>
</g>
<g id="fignu3-card-front" class="fignu3-card-front">
<g id="Rectangle 968" filter="url(#filter2_i_1703_54)">
<path id="Vector_5" d="M619.168 308.891L244.923 628.527C237.233 635.094 234.901 647.628 239.714 656.521L381.929 919.323C386.742 928.217 396.877 930.103 404.566 923.535L778.811 603.9C786.501 597.333 788.833 584.799 784.02 575.906L641.805 313.103C636.992 304.21 626.857 302.324 619.168 308.891Z" fill="url(#paint3_linear_1703_54)"/>
</g>
<text id="MATHEUS RIBEIRO" transform="matrix(0.760406 -0.649448 0.475931 0.879483 472.321 753.803)" fill="#FEFBFF" xml:space="preserve" style="white-space: pre" font-family="Sora" font-size="17.5773" font-weight="bold" letter-spacing="0em"><tspan x="0" y="16.9763">MATHEUS RIBEIRO</tspan></text>
<path id="Union" fill-rule="evenodd" clip-rule="evenodd" d="M395.21 801.414C395.209 801.413 395.2 801.396 395.188 801.357C395.175 801.317 395.16 801.263 395.146 801.193C395.118 801.052 395.096 800.865 395.089 800.637C395.076 800.181 395.127 799.59 395.306 798.93C395.658 797.626 396.515 796.005 398.424 794.601C405.973 789.05 413.159 791.32 415.512 795.668L429.457 821.437C429.679 821.847 429.699 822.107 429.673 822.263C429.648 822.41 429.549 822.656 429.164 822.984L424.864 826.658C424.48 826.986 424.261 827.012 424.143 826.986C424.018 826.96 423.833 826.84 423.611 826.43L410.739 802.643C409.899 801.09 408.4 800.103 406.804 799.782C405.205 799.461 403.412 799.79 401.962 801.029L397.201 805.094L395.21 801.414ZM402.659 802.317L397.899 806.383L413.445 835.112C413.792 835.753 414.019 836.449 413.864 837.199C413.711 837.936 413.239 838.469 412.737 838.899L408.358 842.639C407.908 843.023 407.361 843.343 406.771 843.284C406.158 843.223 405.672 842.772 405.294 842.074L392.275 818.017C391.626 816.817 391.421 814.837 391.672 812.937C391.926 811.021 392.674 808.961 394.142 807.708L396.088 806.046L394.096 802.365C393.898 802 393.794 801.428 393.776 800.816C393.757 800.174 393.83 799.389 394.06 798.537C394.525 796.814 395.619 794.858 397.81 793.247C405.801 787.37 413.815 789.523 416.625 794.717L430.57 820.486C430.885 821.066 431.083 821.739 430.959 822.469C430.835 823.207 430.416 823.799 429.862 824.273L425.561 827.946C425.006 828.419 424.414 828.691 423.822 828.565C423.237 828.441 422.811 827.962 422.497 827.381L409.625 803.594C409.006 802.451 407.836 801.633 406.495 801.363C405.157 801.094 403.744 801.39 402.659 802.317ZM394.839 808.996L396.785 807.334L412.331 836.063C412.619 836.594 412.61 836.83 412.591 836.921C412.57 837.024 412.475 837.239 412.039 837.611L407.66 841.351C407.328 841.635 407.113 841.702 406.977 841.688C406.866 841.677 406.664 841.596 406.408 841.123L393.389 817.066C392.966 816.283 392.749 814.737 392.969 813.072C393.187 811.423 393.805 809.879 394.839 808.996ZM455.244 807.852C455.244 807.853 455.253 807.87 455.266 807.909C455.279 807.949 455.293 808.003 455.307 808.073C455.335 808.213 455.358 808.401 455.365 808.629C455.378 809.085 455.326 809.675 455.148 810.336C454.796 811.64 453.938 813.261 452.029 814.665C444.48 820.216 437.295 817.946 434.942 813.598L420.997 787.829C420.775 787.418 420.754 787.159 420.78 787.003C420.805 786.856 420.905 786.61 421.289 786.281L425.59 782.608C425.974 782.28 426.193 782.254 426.311 782.279C426.436 782.306 426.621 782.426 426.843 782.836L439.715 806.623C440.555 808.175 442.054 809.163 443.649 809.483C445.248 809.805 447.042 809.475 448.492 808.237L453.252 804.171L455.244 807.852ZM447.794 806.949L452.555 802.883L437.008 774.154C436.661 773.513 436.434 772.817 436.589 772.067C436.742 771.33 437.214 770.797 437.717 770.367L442.096 766.627C442.545 766.243 443.093 765.923 443.682 765.982C444.296 766.043 444.782 766.494 445.16 767.192L458.178 791.249C458.827 792.449 459.033 794.429 458.781 796.329C458.528 798.245 457.78 800.304 456.312 801.558L454.366 803.22L456.358 806.901C456.555 807.266 456.66 807.838 456.678 808.449C456.697 809.092 456.623 809.877 456.393 810.729C455.928 812.451 454.834 814.408 452.643 816.019C444.652 821.895 436.639 819.743 433.828 814.549L419.883 788.78C419.569 788.199 419.371 787.526 419.494 786.797C419.619 786.059 420.038 785.467 420.592 784.993L424.893 781.32C425.447 780.847 426.039 780.575 426.631 780.701C427.217 780.825 427.642 781.304 427.956 781.885L440.829 805.672C441.447 806.815 442.617 807.633 443.959 807.903C445.297 808.171 446.71 807.875 447.794 806.949ZM455.615 800.27L453.669 801.932L438.122 773.203C437.835 772.672 437.843 772.436 437.862 772.345C437.884 772.242 437.979 772.027 438.414 771.655L442.793 767.915C443.126 767.631 443.341 767.564 443.476 767.578C443.588 767.589 443.79 767.67 444.046 768.143L457.064 792.2C457.488 792.983 457.705 794.529 457.484 796.194C457.266 797.842 456.649 799.386 455.615 800.27Z" fill="#FEFBFF"/>
<path id="Ellipse 10" d="M601.158 448.827C615.23 436.809 619.498 413.872 610.69 397.597C601.883 381.322 583.336 377.871 569.264 389.889C555.192 401.907 550.925 424.844 559.732 441.119C568.54 457.394 587.087 460.845 601.158 448.827Z" fill="#E71924"/>
<path id="Ellipse 11" d="M632.21 422.306C646.282 410.288 650.549 387.351 641.742 371.076C632.935 354.801 614.388 351.35 600.316 363.368C586.244 375.386 581.977 398.323 590.784 414.598C599.591 430.873 618.138 434.324 632.21 422.306Z" fill="#F99F19"/>
<path id="Intersect_2" fill-rule="evenodd" clip-rule="evenodd" d="M613.32 429.349C604.352 429.13 595.872 423.999 590.722 414.482C585.572 404.965 584.892 393.171 588.029 382.614C596.998 382.833 605.477 387.965 610.627 397.481C615.777 406.998 616.457 418.792 613.32 429.349Z" fill="#F26520"/>
<g id="Group 301">
<path id="Rectangle 344" d="M381.388 659.082L333.615 699.884C331.746 701.48 331.18 704.526 332.349 706.688L352.283 743.524C353.453 745.686 355.916 746.144 357.785 744.548L405.558 703.746C407.427 702.15 407.994 699.103 406.824 696.942L386.89 660.106C385.721 657.944 383.257 657.486 381.388 659.082Z" fill="url(#paint4_linear_1703_54)" stroke="#211F21" stroke-width="1.57065"/>
<path id="Vector 9" d="M338.28 717.109L354.602 703.168" stroke="#211F21" stroke-width="1.46478" stroke-linecap="round"/>
<path id="Vector 10" d="M346.004 731.382L361.969 717.747" stroke="#211F21" stroke-width="1.46478" stroke-linecap="round"/>
<path id="Vector 11" d="M384.222 698.741L400.147 685.14" stroke="#211F21" stroke-width="1.46478" stroke-linecap="round"/>
<path id="Vector 12" d="M376.508 685.132L392.672 671.327" stroke="#211F21" stroke-width="1.46478" stroke-linecap="round"/>
<path id="Ellipse 12" d="M361.863 687.541C362.522 686.978 362.722 685.903 362.31 685.14C361.897 684.377 361.027 684.215 360.368 684.779C359.708 685.342 359.508 686.417 359.921 687.18C360.334 687.943 361.203 688.105 361.863 687.541Z" fill="#211F21"/>
<g id="Vector 13">
<path id="Vector_6" d="M431.42 663.093C429.743 652.061 427.473 646.963 419.506 641.078C418.661 640.454 418.592 639.39 418.907 638.896C419.222 638.403 419.921 638.03 420.799 638.627C429.711 644.686 432.314 650.129 433.955 662.401C434.055 663.662 433.373 664.414 432.736 664.451C431.992 664.495 431.561 664.025 431.42 663.093Z" fill="#FEFBFF"/>
<path id="Vector_7" d="M415.7 645.339C415.426 645.909 415.644 647 416.622 647.581C422.788 651.739 424.672 655.518 425.717 664.387C425.801 665.3 426.377 665.896 426.987 665.659C427.709 665.379 427.965 664.444 427.882 663.548C426.991 653.935 424.863 649.793 417.79 644.9C417.137 644.448 416.11 644.484 415.7 645.339Z" fill="#FEFBFF"/>
<path id="Vector_8" d="M413.338 651.732C412.866 652.472 413.173 653.327 413.937 653.914C417.906 656.966 419.493 659.222 420.041 665.195C420.099 666.268 420.422 667.183 421.237 666.867C422.052 666.551 422.317 665.725 422.257 664.986C421.689 657.583 419.526 655.008 414.782 651.172C414.377 650.845 413.811 650.992 413.338 651.732Z" fill="#FEFBFF"/>
<path id="Vector_9" d="M410.155 657.144C409.807 658.115 410.1 658.885 411.201 659.616C413.522 661.182 414.237 662.565 414.565 665.832C414.687 667.294 415.214 668.645 416.135 668.195C417.056 667.745 417.232 667.116 416.98 665.453C416.167 661.205 415.232 659.209 412.245 656.705C411.503 656.027 410.702 656.004 410.155 657.144Z" fill="#FEFBFF"/>
</g>
<path id="Vector 14" d="M371.368 681.442C366.585 676.73 362.13 676.203 357.552 680.114C351.979 684.874 353.06 691.128 354.477 702.938C359.845 706.972 361.586 710.128 362.326 717.442C372.301 726.234 376.918 727.623 381.423 723.686C387.394 718.586 385.926 711.281 384.023 698.911C379.381 694.988 377.586 692.168 376.269 685.404" stroke="#211F21" stroke-width="1.46478" stroke-linecap="round"/>
</g>
</g>
</g>
</g>
<defs>
<filter id="filter0_f_1703_54" x="13" y="937" width="769" height="194" filterUnits="userSpaceOnUse" color-interpolation-filters="sRGB">
<feFlood flood-opacity="0" result="BackgroundImageFix"/>
<feBlend mode="normal" in="SourceGraphic" in2="BackgroundImageFix" result="shape"/>
<feGaussianBlur stdDeviation="33.5" result="effect1_foregroundBlur_1703_54"/>
</filter>
<filter id="filter1_i_1703_54" x="31.5039" y="74.5264" width="538.365" height="609.782" filterUnits="userSpaceOnUse" color-interpolation-filters="sRGB">
<feFlood flood-opacity="0" result="BackgroundImageFix"/>
<feBlend mode="normal" in="SourceGraphic" in2="BackgroundImageFix" result="shape"/>
<feColorMatrix in="SourceAlpha" type="matrix" values="0 0 0 0 0 0 0 0 0 0 0 0 0 0 0 0 0 0 127 0" result="hardAlpha"/>
<feOffset dx="2.22628" dy="2.22628"/>
<feGaussianBlur stdDeviation="2.22628"/>
<feComposite in2="hardAlpha" operator="arithmetic" k2="-1" k3="1"/>
<feColorMatrix type="matrix" values="0 0 0 0 1 0 0 0 0 1 0 0 0 0 1 0 0 0 0.25 0"/>
<feBlend mode="normal" in2="shape" result="effect1_innerShadow_1703_54"/>
</filter>
<filter id="filter2_i_1703_54" x="237.21" y="304.976" width="551.512" height="624.673" filterUnits="userSpaceOnUse" color-interpolation-filters="sRGB">
<feFlood flood-opacity="0" result="BackgroundImageFix"/>
<feBlend mode="normal" in="SourceGraphic" in2="BackgroundImageFix" result="shape"/>
<feColorMatrix in="SourceAlpha" type="matrix" values="0 0 0 0 0 0 0 0 0 0 0 0 0 0 0 0 0 0 127 0" result="hardAlpha"/>
<feOffset dx="2.19716" dy="2.19716"/>
<feGaussianBlur stdDeviation="2.19716"/>
<feComposite in2="hardAlpha" operator="arithmetic" k2="-1" k3="1"/>
<feColorMatrix type="matrix" values="0 0 0 0 1 0 0 0 0 1 0 0 0 0 1 0 0 0 0.25 0"/>
<feBlend mode="normal" in2="shape" result="effect1_innerShadow_1703_54"/>
</filter>
<linearGradient id="paint0_linear_1703_54" x1="489.643" y1="362.397" x2="201.854" y2="540.68" gradientUnits="userSpaceOnUse">
<stop stop-color="#A950C4"/>
<stop offset="1" stop-color="#82269E"/>
</linearGradient>
<linearGradient id="paint1_linear_1703_54" x1="120.873" y1="345.241" x2="177.141" y2="304.971" gradientUnits="userSpaceOnUse">
<stop stop-color="#F6F3F7"/>
<stop offset="1" stop-color="#D6D6D6"/>
</linearGradient>
<linearGradient id="paint2_linear_1703_54" x1="141.689" y1="274.519" x2="87.3063" y2="311.049" gradientUnits="userSpaceOnUse">
<stop stop-color="#F5F5F5"/>
<stop offset="1" stop-color="#D6D6D6"/>
</linearGradient>
<linearGradient id="paint3_linear_1703_54" x1="592.318" y1="390.056" x2="659.271" y2="803.775" gradientUnits="userSpaceOnUse">
<stop stop-color="#A950C4"/>
<stop offset="1" stop-color="#82269E"/>
</linearGradient>
<linearGradient id="paint4_linear_1703_54" x1="383.892" y1="666.014" x2="350.599" y2="739.299" gradientUnits="userSpaceOnUse">
<stop stop-color="#F4F4F4"/>
<stop offset="1" stop-color="#D6D6D6"/>
</linearGradient>
</defs>
</svg>
