<svg viewBox="0 0 692 603" fill="none" xmlns="http://www.w3.org/2000/svg">
<path fill-rule="evenodd" clip-rule="evenodd" d="M161 491L186 390C159.458 321.86 150.189 283.605 174 222.5C196.559 164.607 227.413 133.52 287 110.5C330.035 94.582 374.5 95.0002 415 106.5C455.5 118 499.784 148.257 527.5 197.5C557.443 250.699 557.5 308.5 543.5 353C529.5 397.5 498.5 437 453 463C407.5 489 368.3 492.888 315 482C301.591 479.261 286.048 472.755 274.977 468.12C267.964 465.185 262.745 463 261 463C256.5 463 161 491 161 491ZM223 386.5L208 443.5L269.5 428.5C294.728 447.402 313.832 452.042 354 453C408.168 450.97 435.576 438.462 479.5 397.5C514.904 352.289 523.967 323.516 516 264.5C497.982 205.063 482.093 178.694 436 153C392.744 128.961 365.314 123.848 307 139.5C252.216 156.344 232.397 177.888 208 228.5C187.592 289.501 191.818 324.125 223 386.5ZM307 277.5C303 287.5 367.5 348 381 340.5C394.5 333 406 314 406 314L453 337C460.188 356.562 454.357 365.005 436 378.5C415.249 391.357 390 386.5 347.5 366C305 345.5 257 277.5 257 253.5C257 229.5 273.5 202 281.5 202H303L326 253.5C326 253.5 311 267.5 307 277.5Z" fill="#FFF9F9"/>
<path d="M406 314C406 314 394.5 333 381 340.5C367.5 348 303 287.5 307 277.5C311 267.5 326 253.5 326 253.5L303 202M406 314C406 314 434.645 328.018 453 337M406 314L453 337M453 337C460.188 356.562 454.357 365.005 436 378.5C415.249 391.357 390 386.5 347.5 366C305 345.5 257 277.5 257 253.5C257 229.5 273.5 202 281.5 202M281.5 202C289.5 202 303 202 303 202M281.5 202H303M161 491L186 390C159.458 321.86 150.189 283.605 174 222.5C196.559 164.607 227.413 133.52 287 110.5C330.035 94.582 374.5 95.0002 415 106.5C455.5 118 499.784 148.257 527.5 197.5C557.443 250.699 557.5 308.5 543.5 353C529.5 397.5 498.5 437 453 463C407.5 489 368.3 492.888 315 482C301.591 479.261 286.048 472.755 274.977 468.12C267.964 465.185 262.745 463 261 463C256.5 463 161 491 161 491ZM208 443.5L223 386.5C191.818 324.125 187.592 289.501 208 228.5C232.397 177.888 252.216 156.344 307 139.5C365.314 123.848 392.744 128.961 436 153C482.093 178.694 497.982 205.063 516 264.5C523.967 323.516 514.904 352.289 479.5 397.5C435.576 438.462 408.168 450.97 354 453C313.832 452.042 294.728 447.402 269.5 428.5L208 443.5Z" stroke="white"/>
</svg>
