<svg viewBox="0 0 722 458" fill="none" xmlns="http://www.w3.org/2000/svg">
<g id="nubank 1" clip-path="url(#clip0_1702_2)">
<g id="Group" filter="url(#filter0_i_1702_2)">
<path id="Vector" d="M697 0H25C11.1929 0 0 11.1929 0 25V433C0 446.807 11.1929 458 25 458H697C710.807 458 722 446.807 722 433V25C722 11.1929 710.807 0 697 0Z" fill="url(#paint0_linear_1702_2)"/>
</g>
<path id="MATHEUS RIBEIRO" d="M222.968 362.16V344.64H228.392L232.4 354.48H232.856L236.816 344.64H242.336V362.16H238.448V347.208L239 347.256L234.368 358.608H230.624L225.968 347.256L226.568 347.208V362.16H222.968ZM244.609 362.16L250.393 344.64H256.753L262.753 362.16H258.673L253.825 347.352L255.073 347.856H251.977L253.273 347.352L248.545 362.16H244.609ZM249.001 357.816L250.201 354.552H257.065L258.289 357.816H249.001ZM266.971 362.16V347.592H270.907V362.16H266.971ZM262.051 348.072V344.64H275.851V348.072H262.051ZM289.655 362.16V344.64H293.591V362.16H289.655ZM278.327 362.16V344.64H282.263V362.16H278.327ZM281.567 355.08V351.624H290.351V355.08H281.567ZM297.523 362.16V344.64H301.363V362.16H297.523ZM300.883 362.16V358.896H308.539V362.16H300.883ZM300.883 354.888V351.624H307.987V354.888H300.883ZM300.883 347.904V344.64H308.371V347.904H300.883ZM319.117 362.616C317.469 362.616 316.069 362.312 314.917 361.704C313.781 361.08 312.917 360.2 312.325 359.064C311.733 357.928 311.437 356.584 311.437 355.032V344.64H315.373V355.176C315.373 355.944 315.517 356.616 315.805 357.192C316.109 357.752 316.533 358.184 317.077 358.488C317.637 358.792 318.317 358.944 319.117 358.944C319.933 358.944 320.613 358.792 321.157 358.488C321.717 358.184 322.141 357.752 322.429 357.192C322.717 356.632 322.861 355.96 322.861 355.176V344.64H326.797V355.032C326.797 356.584 326.501 357.928 325.909 359.064C325.317 360.2 324.453 361.08 323.317 361.704C322.181 362.312 320.781 362.616 319.117 362.616ZM336.502 362.616C334.918 362.616 333.582 362.368 332.494 361.872C331.406 361.36 330.582 360.672 330.021 359.808C329.462 358.928 329.182 357.92 329.182 356.784H332.998C332.998 357.232 333.118 357.648 333.358 358.032C333.614 358.416 333.998 358.728 334.51 358.968C335.022 359.192 335.686 359.304 336.502 359.304C337.238 359.304 337.854 359.208 338.35 359.016C338.846 358.824 339.222 358.56 339.478 358.224C339.734 357.872 339.862 357.472 339.862 357.024C339.862 356.464 339.622 356.024 339.142 355.704C338.662 355.368 337.886 355.152 336.814 355.056L335.493 354.936C333.75 354.792 332.358 354.248 331.318 353.304C330.278 352.36 329.758 351.112 329.758 349.56C329.758 348.44 330.022 347.472 330.55 346.656C331.094 345.84 331.846 345.216 332.806 344.784C333.766 344.336 334.902 344.112 336.214 344.112C337.59 344.112 338.766 344.352 339.742 344.832C340.734 345.296 341.494 345.96 342.022 346.824C342.55 347.672 342.814 348.672 342.814 349.824H338.974C338.974 349.392 338.87 349 338.662 348.648C338.454 348.28 338.142 347.984 337.726 347.76C337.326 347.536 336.822 347.424 336.214 347.424C335.638 347.424 335.15 347.52 334.75 347.712C334.366 347.904 334.078 348.168 333.886 348.504C333.694 348.824 333.598 349.176 333.598 349.56C333.598 350.056 333.774 350.488 334.126 350.856C334.478 351.224 335.054 351.44 335.854 351.504L337.198 351.624C338.478 351.736 339.606 352.016 340.582 352.464C341.558 352.896 342.318 353.496 342.862 354.264C343.422 355.016 343.702 355.936 343.702 357.024C343.702 358.144 343.406 359.128 342.814 359.976C342.238 360.808 341.414 361.456 340.342 361.92C339.27 362.384 337.99 362.616 336.502 362.616ZM351.452 362.16V344.496H355.388V362.16H351.452ZM362.084 362.16L356.948 354.624H361.268L366.644 362.16H362.084ZM354.332 356.544V353.448H358.652C359.228 353.448 359.724 353.336 360.14 353.112C360.572 352.872 360.9 352.544 361.124 352.128C361.364 351.696 361.484 351.2 361.484 350.64C361.484 350.08 361.364 349.592 361.124 349.176C360.9 348.744 360.572 348.416 360.14 348.192C359.724 347.952 359.228 347.832 358.652 347.832H354.332V344.496H358.34C359.796 344.496 361.06 344.72 362.132 345.168C363.204 345.6 364.028 346.248 364.604 347.112C365.18 347.976 365.468 349.064 365.468 350.376V350.76C365.468 352.056 365.172 353.136 364.58 354C364.004 354.848 363.18 355.488 362.108 355.92C361.052 356.336 359.796 356.544 358.34 356.544H354.332ZM369.032 362.16V344.64H372.968V362.16H369.032ZM380.312 362.28V359.208H384.416C385.152 359.208 385.704 359.016 386.072 358.632C386.44 358.248 386.624 357.704 386.624 357C386.624 356.296 386.44 355.76 386.072 355.392C385.704 355.008 385.152 354.816 384.416 354.816H380.312V352.44H384.224C385.44 352.44 386.52 352.592 387.464 352.896C388.408 353.184 389.152 353.656 389.696 354.312C390.24 354.968 390.512 355.856 390.512 356.976V357.312C390.512 358.352 390.272 359.248 389.792 360C389.312 360.736 388.608 361.304 387.68 361.704C386.752 362.088 385.6 362.28 384.224 362.28H380.312ZM376.952 362.28V344.496H380.792V362.28H376.952ZM380.312 354.192V351.84H383.768C384.52 351.84 385.064 351.648 385.4 351.264C385.736 350.88 385.904 350.368 385.904 349.728C385.904 349.056 385.736 348.528 385.4 348.144C385.064 347.76 384.52 347.568 383.768 347.568H380.312V344.496H383.528C385.544 344.496 387.088 344.92 388.16 345.768C389.248 346.616 389.792 347.824 389.792 349.392V349.752C389.792 350.84 389.512 351.712 388.952 352.368C388.408 353.024 387.664 353.496 386.72 353.784C385.792 354.056 384.728 354.192 383.528 354.192H380.312ZM393.57 362.16V344.64H397.41V362.16H393.57ZM396.93 362.16V358.896H404.586V362.16H396.93ZM396.93 354.888V351.624H404.034V354.888H396.93ZM396.93 347.904V344.64H404.418V347.904H396.93ZM407.868 362.16V344.64H411.804V362.16H407.868ZM415.788 362.16V344.496H419.724V362.16H415.788ZM426.42 362.16L421.284 354.624H425.604L430.98 362.16H426.42ZM418.668 356.544V353.448H422.988C423.564 353.448 424.06 353.336 424.476 353.112C424.908 352.872 425.236 352.544 425.46 352.128C425.7 351.696 425.82 351.2 425.82 350.64C425.82 350.08 425.7 349.592 425.46 349.176C425.236 348.744 424.908 348.416 424.476 348.192C424.06 347.952 423.564 347.832 422.988 347.832H418.668V344.496H422.676C424.132 344.496 425.396 344.72 426.468 345.168C427.54 345.6 428.364 346.248 428.94 347.112C429.516 347.976 429.804 349.064 429.804 350.376V350.76C429.804 352.056 429.508 353.136 428.916 354C428.34 354.848 427.516 355.488 426.444 355.92C425.388 356.336 424.132 356.544 422.676 356.544H418.668ZM441.509 362.616C439.925 362.616 438.541 362.344 437.357 361.8C436.189 361.24 435.221 360.512 434.453 359.616C433.685 358.704 433.109 357.72 432.725 356.664C432.357 355.608 432.173 354.592 432.173 353.616V353.088C432.173 352 432.365 350.928 432.749 349.872C433.149 348.8 433.741 347.832 434.525 346.968C435.309 346.104 436.285 345.416 437.453 344.904C438.621 344.376 439.973 344.112 441.509 344.112C443.045 344.112 444.397 344.376 445.565 344.904C446.733 345.416 447.709 346.104 448.493 346.968C449.277 347.832 449.869 348.8 450.269 349.872C450.669 350.928 450.869 352 450.869 353.088V353.616C450.869 354.592 450.677 355.608 450.293 356.664C449.909 357.72 449.333 358.704 448.565 359.616C447.797 360.512 446.821 361.24 445.637 361.8C444.469 362.344 443.093 362.616 441.509 362.616ZM441.509 358.944C442.341 358.944 443.085 358.8 443.741 358.512C444.413 358.224 444.981 357.824 445.445 357.312C445.925 356.8 446.285 356.208 446.525 355.536C446.765 354.864 446.885 354.144 446.885 353.376C446.885 352.56 446.757 351.816 446.501 351.144C446.261 350.456 445.901 349.864 445.421 349.368C444.957 348.856 444.397 348.464 443.741 348.192C443.085 347.92 442.341 347.784 441.509 347.784C440.677 347.784 439.933 347.92 439.277 348.192C438.621 348.464 438.053 348.856 437.573 349.368C437.109 349.864 436.757 350.456 436.517 351.144C436.277 351.816 436.157 352.56 436.157 353.376C436.157 354.144 436.277 354.864 436.517 355.536C436.757 356.208 437.109 356.8 437.573 357.312C438.053 357.824 438.621 358.224 439.277 358.512C439.933 358.8 440.677 358.944 441.509 358.944Z" fill="#FEFBFF"/>
<path id="Vector_2" fill-rule="evenodd" clip-rule="evenodd" d="M94.6653 319.851C94.6653 319.852 94.6656 319.826 94.6765 319.771C94.687 319.717 94.7053 319.646 94.7346 319.559C94.7934 319.385 94.89 319.165 95.0333 318.917C95.3199 318.421 95.7758 317.841 96.4341 317.301C97.7329 316.235 99.8635 315.292 103.14 315.533C116.1 316.484 123.415 325.41 123.415 332.161V372.168C123.415 372.805 123.268 373.099 123.132 373.241C123.004 373.375 122.718 373.546 122.028 373.546H114.306C113.616 373.546 113.33 373.375 113.202 373.241C113.066 373.1 112.919 372.805 112.919 372.168V335.238C112.919 332.828 111.735 330.421 109.988 328.634C108.238 326.842 105.817 325.566 103.213 325.566H94.6653V319.851ZM103.213 327.566H94.6653V372.168C94.6653 373.162 94.4816 374.108 93.7927 374.763C93.1155 375.407 92.1812 375.546 91.2783 375.546H83.4153C82.6083 375.546 81.7232 375.389 81.0381 374.792C80.3256 374.171 80.0283 373.251 80.0283 372.168V334.819C80.0283 332.956 81.092 330.668 82.6634 328.878C84.2481 327.074 86.5353 325.566 89.1713 325.566H92.6653V319.851C92.6653 319.284 92.917 318.582 93.3015 317.917C93.7055 317.217 94.3169 316.45 95.1658 315.754C96.8814 314.347 99.5249 313.262 103.287 313.538C117.005 314.545 125.415 324.098 125.415 332.161V372.168C125.415 373.069 125.212 373.963 124.575 374.626C123.931 375.297 123.024 375.546 122.028 375.546H114.306C113.311 375.546 112.403 375.297 111.759 374.626C111.123 373.963 110.919 373.069 110.919 372.168V335.238C110.919 333.463 110.026 331.534 108.558 330.031C107.093 328.532 105.161 327.566 103.213 327.566ZM89.1713 327.566H92.6653V372.168C92.6653 372.991 92.4979 373.235 92.4145 373.314C92.3195 373.404 92.0603 373.546 91.2783 373.546H83.4153C82.8181 373.546 82.5097 373.422 82.3523 373.285C82.2225 373.171 82.0283 372.902 82.0283 372.168V334.819C82.0283 333.604 82.7895 331.766 84.1663 330.198C85.5298 328.645 87.3141 327.566 89.1713 327.566ZM164.111 381.128C164.111 381.13 164.11 381.156 164.1 381.209C164.089 381.262 164.071 381.333 164.042 381.42C163.983 381.595 163.886 381.814 163.743 382.063C163.457 382.559 163.001 383.139 162.342 383.679C161.043 384.744 158.913 385.687 155.636 385.447C142.676 384.495 135.361 375.569 135.361 368.819V328.812C135.361 328.175 135.508 327.88 135.644 327.739C135.772 327.605 136.058 327.434 136.748 327.434H144.471C145.16 327.434 145.446 327.605 145.575 327.739C145.71 327.88 145.858 328.175 145.858 328.812V365.741C145.858 368.151 147.042 370.559 148.788 372.346C150.539 374.137 152.96 375.414 155.563 375.414H164.111V381.128ZM155.563 373.414H164.111V328.812C164.111 327.817 164.295 326.872 164.984 326.216C165.661 325.572 166.595 325.434 167.498 325.434H175.361C176.168 325.434 177.053 325.59 177.738 326.187C178.451 326.808 178.748 327.728 178.748 328.812V366.161C178.748 368.023 177.684 370.312 176.113 372.101C174.528 373.906 172.241 375.414 169.605 375.414H166.111V381.128C166.111 381.695 165.859 382.397 165.475 383.063C165.071 383.762 164.459 384.529 163.611 385.225C161.895 386.632 159.252 387.718 155.49 387.441C141.772 386.434 133.361 376.882 133.361 368.819V328.812C133.361 327.91 133.565 327.016 134.201 326.353C134.845 325.683 135.753 325.434 136.748 325.434H144.471C145.466 325.434 146.373 325.683 147.017 326.353C147.654 327.016 147.858 327.91 147.858 328.812V365.741C147.858 367.516 148.75 369.445 150.219 370.948C151.683 372.447 153.615 373.414 155.563 373.414ZM169.605 373.414H166.111V328.812C166.111 327.988 166.279 327.745 166.362 327.666C166.457 327.575 166.716 327.434 167.498 327.434H175.361C175.958 327.434 176.267 327.558 176.424 327.695C176.554 327.808 176.748 328.077 176.748 328.812V366.161C176.748 367.376 175.987 369.214 174.61 370.782C173.247 372.334 171.462 373.414 169.605 373.414Z" fill="#FEFBFF"/>
<path id="Vector_3" d="M581.889 132.248C607.156 132.248 627.639 111.764 627.639 86.4971C627.639 61.2298 607.156 40.7466 581.889 40.7466C556.622 40.7466 536.138 61.2298 536.138 86.4971C536.138 111.764 556.622 132.248 581.889 132.248Z" fill="#E71924"/>
<path id="Vector_4" d="M637.647 132.248C662.914 132.248 683.398 111.764 683.398 86.4971C683.398 61.2298 662.914 40.7466 637.647 40.7466C612.38 40.7466 591.896 61.2298 591.896 86.4971C591.896 111.764 612.38 132.248 637.647 132.248Z" fill="#F99F19"/>
<path id="Vector_5" fill-rule="evenodd" clip-rule="evenodd" d="M609.768 122.595C620.636 114.23 627.64 101.092 627.64 86.3172C627.64 71.5427 620.636 58.404 609.768 50.0396C598.9 58.404 591.897 71.5427 591.897 86.3172C591.897 101.092 598.9 114.23 609.768 122.595Z" fill="#F26520"/>
<path id="Vector_6" d="M172.279 156.195H86.4971C83.1413 156.195 80.4209 158.915 80.4209 162.271V219.459C80.4209 222.815 83.1413 225.536 86.4971 225.536H172.279C175.635 225.536 178.356 222.815 178.356 219.459V162.271C178.356 158.915 175.635 156.195 172.279 156.195Z" fill="url(#paint1_linear_1702_2)" stroke="#211F21" stroke-width="2.14455"/>
<path id="Vector_7" d="M80.7783 178.713H110.087" stroke="#211F21" stroke-width="2" stroke-linecap="round"/>
<path id="Vector_8" d="M80.7783 200.873H109.445" stroke="#211F21" stroke-width="2" stroke-linecap="round"/>
<path id="Vector_9" d="M149.404 200.873H177.998" stroke="#211F21" stroke-width="2" stroke-linecap="round"/>
<path id="Vector_10" d="M148.975 179.428H177.998" stroke="#211F21" stroke-width="2" stroke-linecap="round"/>
<path id="Vector_11" d="M129.388 168.706C130.572 168.706 131.533 167.745 131.533 166.561C131.533 165.377 130.572 164.417 129.388 164.417C128.204 164.417 127.243 165.377 127.243 166.561C127.243 167.745 128.204 168.706 129.388 168.706Z" fill="#211F21"/>
<path id="Vector_12" d="M231.053 205.824C236.325 192.59 236.926 185.119 231.053 171.645C230.43 170.215 231.053 169.024 231.768 168.786C232.483 168.547 233.589 168.786 234.27 170.215C241.188 184.73 240.767 192.87 234.627 207.387C233.912 208.817 232.575 208.998 231.768 208.46C230.824 207.831 230.608 206.941 231.053 205.824Z" fill="#FEFBFF"/>
<path id="Vector_13" d="M223.547 172.717C222.832 173.075 222.375 174.43 223.19 175.934C227.999 185.94 227.801 191.662 223.19 202.026C222.686 203.071 222.998 204.226 223.905 204.528C224.977 204.886 225.913 204.125 226.406 203.098C231.701 192.084 231.84 185.756 226.406 174.147C225.905 173.075 224.619 172.181 223.547 172.717Z" fill="#FEFBFF"/>
<path id="Vector_14" d="M216.399 177.364C215.326 177.721 215.136 178.908 215.684 180.223C218.53 187.063 218.979 190.898 215.684 197.737C215.041 198.929 214.83 200.193 216.041 200.596C217.252 201 218.126 200.363 218.543 199.524C222.766 191.149 221.82 186.454 218.543 178.079C218.263 177.364 217.471 177.006 216.399 177.364Z" fill="#FEFBFF"/>
<path id="Vector_15" d="M208.893 180.223C207.82 180.938 207.668 182.022 208.535 183.797C210.344 187.564 210.303 189.68 208.535 193.448C207.713 195.11 207.463 197.022 208.893 197.38C210.322 197.737 210.957 197.229 211.752 195.235C213.578 189.987 213.756 187.02 211.752 181.653C211.291 180.261 210.322 179.508 208.893 180.223Z" fill="#FEFBFF"/>
<path id="Vector_16" d="M145.115 170.849C142.372 161.508 137.251 156.91 129.03 156.91C119.023 156.91 116.194 164.53 110.087 178.355C113.998 187.507 114.039 192.437 110.087 200.873C116.494 219.254 121.24 224.915 129.388 224.821C140.111 224.821 143.163 215.733 149.046 200.873C145.952 192.497 145.622 187.875 148.5 179.5" stroke="#211F21" stroke-width="2" stroke-linecap="round"/>
</g>
<defs>
<filter id="filter0_i_1702_2" x="0" y="0" width="725" height="461" filterUnits="userSpaceOnUse" color-interpolation-filters="sRGB">
<feFlood flood-opacity="0" result="BackgroundImageFix"/>
<feBlend mode="normal" in="SourceGraphic" in2="BackgroundImageFix" result="shape"/>
<feColorMatrix in="SourceAlpha" type="matrix" values="0 0 0 0 0 0 0 0 0 0 0 0 0 0 0 0 0 0 127 0" result="hardAlpha"/>
<feOffset dx="3" dy="3"/>
<feGaussianBlur stdDeviation="3"/>
<feComposite in2="hardAlpha" operator="arithmetic" k2="-1" k3="1"/>
<feColorMatrix type="matrix" values="0 0 0 0 1 0 0 0 0 1 0 0 0 0 1 0 0 0 0.25 0"/>
<feBlend mode="normal" in2="shape" result="effect1_innerShadow_1702_2"/>
</filter>
<linearGradient id="paint0_linear_1702_2" x1="610.09" y1="61.83" x2="354.096" y2="526.995" gradientUnits="userSpaceOnUse">
<stop stop-color="#A950C4"/>
<stop offset="1" stop-color="#82269E"/>
</linearGradient>
<linearGradient id="paint1_linear_1702_2" x1="171" y1="165" x2="87" y2="221" gradientUnits="userSpaceOnUse">
<stop stop-color="#F4F4F4"/>
<stop offset="1" stop-color="#D6D6D6"/>
</linearGradient>
<clipPath id="clip0_1702_2">
<rect width="722" height="458" fill="white"/>
</clipPath>
</defs>
</svg>
